<?xml version="1.0" encoding="UTF-8"?>
<!DOCTYPE svg PUBLIC "-//W3C//DTD SVG 1.1//EN" "http://www.w3.org/Graphics/SVG/1.1/DTD/svg11.dtd">
<!-- Creator: CorelDRAW 2020 (64-Bit) -->
<svg xmlns="http://www.w3.org/2000/svg" xml:space="preserve" width="44.0311mm" height="31.8143mm" version="1.1" style="shape-rendering:geometricPrecision; text-rendering:geometricPrecision; image-rendering:optimizeQuality; fill-rule:evenodd; clip-rule:evenodd"
viewBox="0 0 14.4723 10.4568"
 xmlns:xlink="http://www.w3.org/1999/xlink"
 xmlns:xodm="http://www.corel.com/coreldraw/odm/2003">
 <defs>
  <style type="text/css">
   <![CDATA[
    .str0 {stroke:white;stroke-width:0.8008;stroke-miterlimit:2.61313}
    .fil0 {fill:none}
    .fil1 {fill:black}
    .fil3 {fill:orange}
    .fil2 {fill:#FFCC00}
   ]]>
  </style>
 </defs>
 <g id="Layer_x0020_1">
  <metadata id="CorelCorpID_0Corel-Layer"/>
  <g>
   <polygon class="fil0 str0" points="2.4792,0.4004 7.2362,0.4004 11.9931,0.4004 13.9631,3.7639 7.2362,9.9143 0.5092,3.7639 "/>
   <polygon id="1" class="fil1" points="2.4792,0.4004 7.2362,0.4004 11.9931,0.4004 13.9631,3.7639 7.2362,9.9143 0.5092,3.7639 "/>
  </g>
  <path class="fil2" d="M12.9161 3.7069l-2.1594 1.9743 -0.0325 -0.3153c-0.0185,-0.1805 -0.0592,-0.345 -0.1218,-0.4934 -0.0617,-0.1461 -0.1457,-0.2782 -0.252,-0.3964 -0.1353,-0.1503 -0.2804,-0.2803 -0.435,-0.3897 -0.1543,-0.1091 -0.3213,-0.2001 -0.501,-0.2729 -0.1872,-0.0758 -0.3923,-0.1501 -0.6154,-0.223 -0.2222,-0.0726 -0.4668,-0.1451 -0.7336,-0.2175l0.0001 -0.0005c-0.3857,-0.101 -0.664,-0.1896 -0.8348,-0.2654l-0.0006 0c-0.1022,-0.0455 -0.1811,-0.099 -0.2366,-0.1606 -0.0681,-0.0757 -0.1022,-0.161 -0.1022,-0.2559 0,-0.0677 0.0184,-0.1296 0.0551,-0.1857 0.0324,-0.0496 0.079,-0.0923 0.1395,-0.1279 0.0527,-0.031 0.1127,-0.054 0.18,-0.0689 0.0639,-0.0142 0.1323,-0.0213 0.2053,-0.0213 0.5676,0 1.3793,0.2538 2.4349,0.7614l1.0072 -1.9 0.6503 0 1.4476 2.4715 -0.0952 0.0871zm-11.39 -0.1983l1.3825 -2.3603 2.579 0c-0.2093,0.1251 -0.3844,0.2472 -0.5431,0.4313 -0.0456,0.0529 -0.0892,0.1088 -0.1308,0.1677 -0.1254,0.1776 -0.2194,0.3703 -0.282,0.578 -0.063,0.2092 -0.0946,0.4348 -0.0946,0.6768 0,0.24 0.0326,0.4553 0.0978,0.6458 0.0638,0.1865 0.1596,0.3507 0.2872,0.4925 0.134,0.149 0.2784,0.2789 0.4328,0.3897 0.1541,0.1106 0.3178,0.2018 0.4909,0.2735 0.3618,0.15 0.8058,0.2919 1.3316,0.4256l0 0.0006c0.1818,0.0466 0.336,0.0896 0.4627,0.1288 0.1334,0.0413 0.2419,0.0798 0.3252,0.1156 0.0994,0.0426 0.1766,0.093 0.2315,0.1509l-0.0003 0.0003c0.0689,0.0729 0.1033,0.1551 0.1033,0.2462 0,0.0677 -0.0216,0.1293 -0.0649,0.1845 -0.035,0.0448 -0.0837,0.0828 -0.1458,0.1138 -0.0544,0.0272 -0.1174,0.0472 -0.1887,0.0601 -0.068,0.0122 -0.1417,0.0184 -0.221,0.0184 -0.4315,0 -0.8838,-0.0796 -1.3568,-0.2389 -0.4205,-0.1416 -0.8573,-0.3464 -1.31,-0.6145l-0.4644 0.9562c-0.9959,-0.9103 -1.9917,-1.8207 -2.9873,-2.7313l0.0651 -0.1112zm5.6024 5.293l-0.6893 -0.6303 -0.5195 -0.475c0.1985,0.0869 0.4093,0.1621 0.6484,0.1991 0.1546,0.024 0.314,0.0366 0.4768,0.0472 0.1589,0.0103 0.3236,0.0155 0.4941,0.0155 0.069,0 0.1228,-0.0005 0.1605,-0.0014 0.2224,-0.0056 0.4403,-0.0347 0.6579,-0.0818l-0.3858 0.3527 -0.7354 0.6724 -0.1076 -0.0984z"/>
  <path class="fil3" d="M3.1819 1.6288l-1.1125 1.8993 2.2277 2.0368 0.4152 -0.8547 0.0063 0.0039c-0.0875,-0.0783 -0.1719,-0.1626 -0.2531,-0.2529 -0.1711,-0.1901 -0.2994,-0.41 -0.3849,-0.6595 -0.0827,-0.2416 -0.1241,-0.5082 -0.1241,-0.7997 0,-0.2876 0.0385,-0.559 0.1153,-0.8138 0.0596,-0.1976 0.1419,-0.3841 0.247,-0.5595l-1.137 0zm7.8864 3.1195l1.3346 -1.2202 -1.1125 -1.8994 -0.0891 0 -1.0729 2.0239c0.0211,0.0141 0.0421,0.0286 0.0629,0.0434 0.1881,0.1331 0.36,0.2862 0.5157,0.4591 0.1407,0.1564 0.2529,0.3336 0.3364,0.5316 0.0086,0.0203 0.0169,0.0409 0.0248,0.0616z"/>
 </g>
</svg>
